<?xml version="1.0" encoding="UTF-8" standalone="no"?>
<!DOCTYPE svg PUBLIC "-//W3C//DTD SVG 1.1//EN" "http://www.w3.org/Graphics/SVG/1.1/DTD/svg11.dtd">
<!-- Generated by Microsoft Visio, SVG Export Example02.svg Page-2 -->
<svg xmlns="http://www.w3.org/2000/svg" xmlns:xlink="http://www.w3.org/1999/xlink" xmlns:ev="http://www.w3.org/2001/xml-events"
		xmlns:v="http://schemas.microsoft.com/visio/2003/SVGExtensions/" width="11.6929in" height="16.0354in"
		viewBox="0 0 841.89 1154.55" xml:space="preserve" color-interpolation-filters="sRGB" class="st13">
	<v:documentProperties v:langID="2057" v:metric="true" v:viewMarkup="false">
		<v:userDefs>
			<v:ud v:nameU="msvNoAutoConnect" v:val="VT0(1):26"/>
		</v:userDefs>
	</v:documentProperties>

	<style type="text/css">
	<![CDATA[
		.st1 {marker-end:url(#mrkr4-9);marker-start:url(#mrkr4-7);stroke:#ff0000;stroke-linecap:round;stroke-linejoin:round;stroke-width:0.75}
		.st2 {fill:#ff0000;fill-opacity:1;stroke:#ff0000;stroke-opacity:1;stroke-width:0.15923566878981}
		.st3 {fill:#4bacc6;fill-opacity:0.84;stroke:#000000;stroke-linecap:round;stroke-linejoin:round;stroke-width:0.75}
		.st4 {fill:#ffffff;stroke:none;stroke-linecap:round;stroke-linejoin:round;stroke-width:0.75}
		.st5 {fill:#000000;font-family:Calibri;font-size:1.5em}
		.st6 {fill:#000000;font-family:Calibri;font-size:0.833336em}
		.st7 {fill:#000000;font-family:Calibri;font-size:0.75em}
		.st8 {font-size:1em}
		.st9 {fill:none;stroke:#000000;stroke-dasharray:5.25,3.75;stroke-linecap:round;stroke-linejoin:round;stroke-width:0.75}
		.st10 {stroke:#000000;stroke-dasharray:5.25,3.75;stroke-linecap:round;stroke-linejoin:round;stroke-width:0.75}
		.st11 {fill:#000000;font-family:Calibri;font-size:1.16666em}
		.st12 {marker-end:url(#mrkr4-281);marker-start:url(#mrkr4-279);stroke:#ff0000;stroke-linecap:round;stroke-linejoin:round;stroke-width:0.75}
		.st13 {fill:none;fill-rule:evenodd;font-size:12px;overflow:visible;stroke-linecap:square;stroke-miterlimit:3}
	]]>
	</style>

	<defs id="Markers">
		<g id="lend4">
			<path d="M 2 1 L 0 0 L 2 -1 L 2 1 " style="stroke:none"/>
		</g>
		<marker id="mrkr4-7" class="st2" v:arrowType="4" v:arrowSize="4" v:setback="12.4344" refX="12.4344" orient="auto"
				markerUnits="strokeWidth" overflow="visible">
			<use xlink:href="#lend4" transform="scale(6.28) "/>
		</marker>
		<marker id="mrkr4-9" class="st2" v:arrowType="4" v:arrowSize="4" v:setback="12.56" refX="-12.56" orient="auto"
				markerUnits="strokeWidth" overflow="visible">
			<use xlink:href="#lend4" transform="scale(-6.28,-6.28) "/>
		</marker>
		<marker id="mrkr4-279" class="st2" v:arrowType="4" v:arrowSize="4" v:setback="12.56" refX="12.56" orient="auto"
				markerUnits="strokeWidth" overflow="visible">
			<use xlink:href="#lend4" transform="scale(6.28) "/>
		</marker>
		<marker id="mrkr4-281" class="st2" v:arrowType="4" v:arrowSize="4" v:setback="12.4344" refX="-12.4344" orient="auto"
				markerUnits="strokeWidth" overflow="visible">
			<use xlink:href="#lend4" transform="scale(-6.28,-6.28) "/>
		</marker>
	</defs>
	<g v:mID="6" v:index="2" v:groupContext="foregroundPage">
		<title>Page-2</title>
		<v:pageProperties v:drawingScale="39.3701" v:pageScale="0.393701" v:drawingUnits="6" v:shadowOffsetX="8.50394"
				v:shadowOffsetY="-8.50394"/>
		<g id="shape48-1" v:mID="48" v:groupContext="shape" transform="translate(-1057.23,830.936) rotate(-90)">
			<title>Sheet.48</title>
			<path transform="" d="M9.33 1154.55 L9.42 1154.55 L675.15 1154.55" class="st1"/>
		</g>
		<g id="shape49-10" v:mID="49" v:groupContext="shape" transform="translate(335.428,-429.915)">
			<title>Sheet.49</title>
			<rect x="0" y="1039.32" width="282.898" height="115.228" class="st3"/>
		</g>
		<g id="shape50-12" v:mID="50" v:groupContext="shape" transform="translate(388.294,-374.639)">
			<title>Sheet.50</title>
			<rect x="0" y="1113.73" width="149.811" height="40.8189" class="st3"/>
		</g>
		<g id="shape51-14" v:mID="51" v:groupContext="shape" transform="translate(410.758,-387.253)">
			<title>Sheet.51</title>
			<desc>WH-A-1201</desc>
			<v:textBlock v:margins="rect(4,4,4,4)" v:tabSpace="42.5197"/>
			<v:textRect cx="52.4409" cy="1146.76" width="104.89" height="15.5906"/>
			<rect x="0" y="1138.96" width="104.882" height="15.5906" class="st4"/>
			<text x="9.86" y="1152.16" class="st5" v:langID="2057"><v:paragraph v:horizAlign="1"/><v:tabList/>WH-A-1201</text>		</g>
		<g id="shape52-17" v:mID="52" v:groupContext="shape" transform="translate(413.912,-476.899)">
			<title>Sheet.52</title>
			<desc>WH-TEC-1000</desc>
			<v:textBlock v:margins="rect(4,4,4,4)" v:tabSpace="42.5197"/>
			<v:textRect cx="62.9646" cy="1143.92" width="125.93" height="21.2598"/>
			<rect x="0" y="1133.29" width="125.929" height="21.2598" class="st4"/>
			<text x="12.01" y="1149.32" class="st5" v:langID="2057"><v:paragraph v:horizAlign="1"/><v:tabList/>WH-TEC-1000</text>		</g>
		<g id="shape53-20" v:mID="53" v:groupContext="shape" transform="translate(199.365,-395.049)">
			<title>Sheet.53</title>
			<rect x="0" y="1140.94" width="101.339" height="13.6063" class="st3"/>
		</g>
		<g id="shape54-22" v:mID="54" v:groupContext="shape" transform="translate(220.625,-397.175)">
			<title>Sheet.54</title>
			<desc>WH-FP-5903</desc>
			<v:textBlock v:margins="rect(4,4,4,4)" v:tabSpace="42.5197"/>
			<v:textRect cx="31.1811" cy="1149.87" width="62.37" height="9.35433"/>
			<rect x="0" y="1145.2" width="62.3622" height="9.35433" class="st4"/>
			<text x="5.54" y="1152.87" class="st6" v:langID="2057"><v:paragraph v:horizAlign="1"/><v:tabList/>WH-FP-5903</text>		</g>
		<g id="shape55-25" v:mID="55" v:groupContext="shape" transform="translate(237.207,-438.986)">
			<title>Sheet.55</title>
			<rect x="0" y="1140.09" width="51.4488" height="14.4567" class="st3"/>
		</g>
		<g id="shape56-27" v:mID="56" v:groupContext="shape" transform="translate(226.294,-456.419)">
			<title>Sheet.56</title>
			<desc>WH-FP-5902</desc>
			<v:textBlock v:margins="rect(4,4,4,4)" v:tabSpace="42.5197"/>
			<v:textRect cx="31.1811" cy="1149.87" width="62.37" height="9.35433"/>
			<rect x="0" y="1145.2" width="62.3622" height="9.35433" class="st4"/>
			<text x="5.54" y="1152.87" class="st6" v:langID="2057"><v:paragraph v:horizAlign="1"/><v:tabList/>WH-FP-5902</text>		</g>
		<g id="shape57-30" v:mID="57" v:groupContext="shape" transform="translate(191.463,-483.773)">
			<title>Sheet.57</title>
			<rect x="0" y="1111.32" width="127.772" height="43.2283" class="st3"/>
		</g>
		<g id="shape58-32" v:mID="58" v:groupContext="shape" transform="translate(225.692,-500.71)">
			<title>Sheet.58</title>
			<desc>WH-FP-5901</desc>
			<v:textBlock v:margins="rect(4,4,4,4)" v:tabSpace="42.5197"/>
			<v:textRect cx="31.1811" cy="1149.87" width="62.37" height="9.35433"/>
			<rect x="0" y="1145.2" width="62.3622" height="9.35433" class="st4"/>
			<text x="5.54" y="1152.87" class="st6" v:langID="2057"><v:paragraph v:horizAlign="1"/><v:tabList/>WH-FP-5901</text>		</g>
		<g id="shape59-35" v:mID="59" v:groupContext="shape" transform="translate(189.94,-564.419)">
			<title>Sheet.59</title>
			<rect x="0" y="1140.94" width="91.4882" height="13.6063" class="st3"/>
		</g>
		<g id="shape60-37" v:mID="60" v:groupContext="shape" transform="translate(204.325,-566.545)">
			<title>Sheet.60</title>
			<desc>GAS-LIFT</desc>
			<v:textBlock v:margins="rect(4,4,4,4)" v:tabSpace="42.5197"/>
			<v:textRect cx="31.1811" cy="1149.87" width="62.37" height="9.35433"/>
			<rect x="0" y="1145.2" width="62.3622" height="9.35433" class="st4"/>
			<text x="13.21" y="1152.87" class="st6" v:langID="2057"><v:paragraph v:horizAlign="1"/><v:tabList/>GAS-LIFT</text>		</g>
		<g id="shape61-40" v:mID="61" v:groupContext="shape" transform="translate(283.625,-591.49)">
			<title>Sheet.61</title>
			<rect x="0" y="1133.29" width="282.898" height="21.2598" class="st3"/>
		</g>
		<g id="shape62-42" v:mID="62" v:groupContext="shape" transform="translate(382.908,-596.592)">
			<title>Sheet.62</title>
			<desc>RISER-MULTIPHASE</desc>
			<v:textBlock v:margins="rect(4,4,4,4)" v:tabSpace="42.5197"/>
			<v:textRect cx="52.4409" cy="1149.02" width="104.89" height="11.0551"/>
			<rect x="0" y="1143.5" width="104.882" height="11.0551" class="st4"/>
			<text x="12.87" y="1152.02" class="st6" v:langID="2057"><v:paragraph v:horizAlign="1"/><v:tabList/>RISER-MULTIPHASE</text>		</g>
		<g id="shape63-45" v:mID="63" v:groupContext="shape" transform="translate(415.365,-689.994)">
			<title>Sheet.63</title>
			<rect x="0" y="1106.36" width="63.2126" height="48.189" class="st3"/>
		</g>
		<g id="shape64-47" v:mID="64" v:groupContext="shape" transform="translate(418.625,-708.561)">
			<title>Sheet.64</title>
			<desc>WH-FP-5904</desc>
			<v:textBlock v:margins="rect(4,4,4,4)" v:tabSpace="42.5197"/>
			<v:textRect cx="28.3465" cy="1149.02" width="56.7" height="11.0551"/>
			<rect x="0" y="1143.5" width="56.6929" height="11.0551" class="st4"/>
			<text x="5.27" y="1151.72" class="st7" v:langID="2057"><v:paragraph v:horizAlign="1"/><v:tabList/>WH-FP-5904</text>		</g>
		<g id="shape65-50" v:mID="65" v:groupContext="shape" transform="translate(187.176,-767.238)">
			<title>Sheet.65</title>
			<rect x="0" y="971.717" width="68.8819" height="182.835" class="st3"/>
		</g>
		<g id="shape66-52" v:mID="66" v:groupContext="shape" transform="translate(190.436,-834.702)">
			<title>Sheet.66</title>
			<desc>LAYDOW-AREA</desc>
			<v:textBlock v:margins="rect(4,4,4,4)" v:tabSpace="42.5197"/>
			<v:textRect cx="31.1811" cy="1142.65" width="62.37" height="23.811"/>
			<rect x="0" y="1130.74" width="62.3622" height="23.811" class="st4"/>
			<text x="11.38" y="1139.65" class="st6" v:langID="2057"><v:paragraph v:horizAlign="1"/><v:tabList/>LAYDOW-<tspan
						x="20.24" dy="1.2em" class="st8">AREA</tspan></text>		</g>
		<g id="shape67-56" v:mID="67" v:groupContext="shape" transform="translate(639.585,-731.805)">
			<title>Sheet.67</title>
			<rect x="0" y="1112.03" width="41.6693" height="42.5197" class="st3"/>
		</g>
		<g id="shape68-58" v:mID="68" v:groupContext="shape" transform="translate(642.42,-747.537)">
			<title>Sheet.68</title>
			<desc>HATCH</desc>
			<v:textBlock v:margins="rect(4,4,4,4)" v:tabSpace="42.5197"/>
			<v:textRect cx="18" cy="1149.02" width="36.01" height="11.0551"/>
			<rect x="0" y="1143.5" width="36" height="11.0551" class="st4"/>
			<text x="5.2" y="1151.72" class="st7" v:langID="2057"><v:paragraph v:horizAlign="1"/><v:tabList/>HATCH</text>		</g>
		<g id="shape69-61" v:mID="69" v:groupContext="shape" transform="translate(661.412,-789.915)">
			<title>Sheet.69</title>
			<rect x="0" y="1055.76" width="36.8504" height="98.7874" class="st3"/>
		</g>
		<g id="shape70-63" v:mID="70" v:groupContext="shape" transform="translate(-467.627,346.424) rotate(-90)">
			<title>Sheet.70</title>
			<desc>WH-FP-3101</desc>
			<v:textBlock v:margins="rect(4,4,4,4)" v:tabSpace="42.5197"/>
			<v:textRect cx="31.1811" cy="1149.87" width="62.37" height="9.35433"/>
			<rect x="0" y="1145.2" width="62.3622" height="9.35433" class="st4"/>
			<text x="5.54" y="1152.87" class="st6" v:langID="2057"><v:paragraph v:horizAlign="1"/><v:tabList/>WH-FP-3101</text>		</g>
		<g id="shape71-66" v:mID="71" v:groupContext="shape" transform="translate(137.003,-321.915)">
			<title>Sheet.71</title>
			<path transform="" d="M0 1154.55 L623.62 1154.55 L623.62 469.98 L0 469.98 L0 1154.55 Z" class="st9"/>
		</g>
		<g id="shape72-68" v:mID="72" v:groupContext="shape" transform="translate(283.695,-551.805)">
			<title>Sheet.72</title>
			<rect x="0" y="1140.94" width="334.63" height="13.6063" class="st3"/>
		</g>
		<g id="shape73-70" v:mID="73" v:groupContext="shape" transform="translate(396.089,-552.864)">
			<title>Sheet.73</title>
			<desc>FIRE-WALL</desc>
			<v:textBlock v:margins="rect(4,4,4,4)" v:tabSpace="42.5197"/>
			<v:textRect cx="52.4409" cy="1149.02" width="104.89" height="11.0551"/>
			<rect x="0" y="1143.5" width="104.882" height="11.0551" class="st4"/>
			<text x="30.65" y="1152.02" class="st6" v:langID="2057"><v:paragraph v:horizAlign="1"/><v:tabList/>FIRE-WALL</text>		</g>
		<g id="shape74-73" v:mID="74" v:groupContext="shape" transform="translate(-1047.31,510.621) rotate(-90)">
			<title>Sheet.74</title>
			<desc>24150</desc>
			<v:textBlock v:margins="rect(4,4,4,4)" v:tabSpace="42.5197"/>
			<v:textRect cx="27.6378" cy="1144.63" width="55.28" height="19.8425"/>
			<rect x="0" y="1134.71" width="55.2756" height="19.8425" class="st4"/>
			<text x="4.83" y="1150.03" class="st5" v:langID="2057"><v:paragraph v:horizAlign="1"/><v:tabList/>24150</text>		</g>
		<g id="shape75-76" v:mID="75" v:groupContext="shape" transform="translate(25.1392,-321.915)">
			<title>Sheet.75</title>
			<path transform="" d="M0 1154.55 L121.5 1154.55" class="st10"/>
		</g>
		<g id="shape76-79" v:mID="76" v:groupContext="shape" transform="translate(55.223,-1006.48)">
			<title>Sheet.76</title>
			<path transform="" d="M0 1154.55 L91.42 1154.55" class="st10"/>
		</g>
		<g id="shape77-82" v:mID="77" v:groupContext="shape" transform="translate(1291.55,59.1362) rotate(90)">
			<title>Sheet.77</title>
			<path transform="" d="M0 1154.55 L88.93 1154.55" class="st10"/>
		</g>
		<g id="shape78-85" v:mID="78" v:groupContext="shape" transform="translate(1915.18,59.1362) rotate(90)">
			<title>Sheet.78</title>
			<path transform="" d="M0 1154.55 L88.93 1154.55" class="st10"/>
		</g>
		<g id="shape79-88" v:mID="79" v:groupContext="shape" transform="translate(137.003,-1052.9)">
			<title>Sheet.79</title>
			<path transform="" d="M9.33 1154.55 L9.42 1154.55 L613.8 1154.55" class="st1"/>
		</g>
		<g id="shape80-95" v:mID="80" v:groupContext="shape" transform="translate(436.766,-1042.97)">
			<title>Sheet.80</title>
			<desc>22000</desc>
			<v:textBlock v:margins="rect(4,4,4,4)" v:tabSpace="42.5197"/>
			<v:textRect cx="27.6378" cy="1144.63" width="55.28" height="19.8425"/>
			<rect x="0" y="1134.71" width="55.2756" height="19.8425" class="st4"/>
			<text x="4.83" y="1150.03" class="st5" v:langID="2057"><v:paragraph v:horizAlign="1"/><v:tabList/>22000</text>		</g>
		<g id="shape81-98" v:mID="81" v:groupContext="shape" transform="translate(351.727,-755.258)">
			<title>Sheet.81</title>
			<rect x="0" y="957.543" width="170.079" height="197.008" class="st3"/>
		</g>
		<g id="shape82-100" v:mID="82" v:groupContext="shape" transform="translate(384.325,-836.895)">
			<title>Sheet.82</title>
			<desc>WELLBAY-AREA</desc>
			<v:textBlock v:margins="rect(4,4,4,4)" v:tabSpace="42.5197"/>
			<v:textRect cx="52.4409" cy="1142.93" width="104.89" height="23.2441"/>
			<rect x="0" y="1131.31" width="104.882" height="23.2441" class="st4"/>
			<text x="20.82" y="1145.93" class="st6" v:langID="2057"><v:paragraph v:horizAlign="1"/><v:tabList/>WELLBAY-AREA</text>		</g>
		<g id="shape83-103" v:mID="83" v:groupContext="shape" transform="translate(137.003,-400.927)">
			<title>Sheet.83</title>
			<path transform="" d="M9.33 1154.55 L9.42 1154.55 L52.94 1154.55" class="st1"/>
		</g>
		<g id="shape84-110" v:mID="84" v:groupContext="shape" transform="translate(150.467,-403.06)">
			<title>Sheet.84</title>
			<desc>2200</desc>
			<v:textBlock v:margins="rect(4,4,4,4)" v:tabSpace="42.5197"/>
			<v:textRect cx="19.8425" cy="1148.35" width="39.69" height="12.3977"/>
			<rect x="0" y="1142.15" width="39.685" height="12.3977" class="st4"/>
			<text x="5.65" y="1152.55" class="st11" v:langID="2057"><v:paragraph v:horizAlign="1"/><v:tabList/>2200</text>		</g>
		<g id="shape85-113" v:mID="85" v:groupContext="shape" transform="translate(300.703,-400.927)">
			<title>Sheet.85</title>
			<path transform="" d="M9.33 1154.55 L9.42 1154.55 L78.17 1154.55" class="st1"/>
		</g>
		<g id="shape86-120" v:mID="86" v:groupContext="shape" transform="translate(326.215,-405.537)">
			<title>Sheet.86</title>
			<desc>3009</desc>
			<v:textBlock v:margins="rect(4,4,4,4)" v:tabSpace="42.5197"/>
			<v:textRect cx="19.8425" cy="1148.35" width="39.69" height="12.3977"/>
			<rect x="0" y="1142.15" width="39.685" height="12.3977" class="st4"/>
			<text x="5.65" y="1152.55" class="st11" v:langID="2057"><v:paragraph v:horizAlign="1"/><v:tabList/>3009</text>		</g>
		<g id="shape87-123" v:mID="87" v:groupContext="shape" transform="translate(137.003,-443.446)">
			<title>Sheet.87</title>
			<path transform="" d="M9.33 1154.55 L9.42 1154.55 L90.78 1154.55" class="st1"/>
		</g>
		<g id="shape88-130" v:mID="88" v:groupContext="shape" transform="translate(167.475,-446.281)">
			<title>Sheet.88</title>
			<desc>3535</desc>
			<v:textBlock v:margins="rect(4,4,4,4)" v:tabSpace="42.5197"/>
			<v:textRect cx="19.8425" cy="1148.35" width="39.69" height="12.3977"/>
			<rect x="0" y="1142.15" width="39.685" height="12.3977" class="st4"/>
			<text x="5.65" y="1152.55" class="st11" v:langID="2057"><v:paragraph v:horizAlign="1"/><v:tabList/>3535</text>		</g>
		<g id="shape89-133" v:mID="89" v:groupContext="shape" transform="translate(137.003,-500.139)">
			<title>Sheet.89</title>
			<path transform="" d="M9.33 1154.55 L9.42 1154.55 L45.01 1154.55" class="st1"/>
		</g>
		<g id="shape90-140" v:mID="90" v:groupContext="shape" transform="translate(143.38,-505.809)">
			<title>Sheet.90</title>
			<desc>1920</desc>
			<v:textBlock v:margins="rect(4,4,4,4)" v:tabSpace="42.5197"/>
			<v:textRect cx="19.8425" cy="1148.35" width="39.69" height="12.3977"/>
			<rect x="0" y="1142.15" width="39.685" height="12.3977" class="st4"/>
			<text x="5.65" y="1152.55" class="st11" v:langID="2057"><v:paragraph v:horizAlign="1"/><v:tabList/>1920</text>		</g>
		<g id="shape91-143" v:mID="91" v:groupContext="shape" transform="translate(137.003,-571.006)">
			<title>Sheet.91</title>
			<path transform="" d="M9.33 1154.55 L9.42 1154.55 L43.02 1154.55" class="st1"/>
		</g>
		<g id="shape92-150" v:mID="92" v:groupContext="shape" transform="translate(143.38,-576.145)">
			<title>Sheet.92</title>
			<desc>1850</desc>
			<v:textBlock v:margins="rect(4,4,4,4)" v:tabSpace="42.5197"/>
			<v:textRect cx="19.8425" cy="1148.35" width="39.69" height="12.3977"/>
			<rect x="0" y="1142.15" width="39.685" height="12.3977" class="st4"/>
			<text x="5.65" y="1152.55" class="st11" v:langID="2057"><v:paragraph v:horizAlign="1"/><v:tabList/>1850</text>		</g>
		<g id="shape93-153" v:mID="93" v:groupContext="shape" transform="translate(137.003,-605.021)">
			<title>Sheet.93</title>
			<path transform="" d="M9.33 1154.55 L9.42 1154.55 L136.76 1154.55" class="st1"/>
		</g>
		<g id="shape94-160" v:mID="94" v:groupContext="shape" transform="translate(184.483,-610.161)">
			<title>Sheet.94</title>
			<desc>5157</desc>
			<v:textBlock v:margins="rect(4,4,4,4)" v:tabSpace="42.5197"/>
			<v:textRect cx="19.8425" cy="1148.35" width="39.69" height="12.3977"/>
			<rect x="0" y="1142.15" width="39.685" height="12.3977" class="st4"/>
			<text x="5.65" y="1152.55" class="st11" v:langID="2057"><v:paragraph v:horizAlign="1"/><v:tabList/>5157</text>		</g>
		<g id="shape95-163" v:mID="95" v:groupContext="shape" transform="translate(137.003,-712.738)">
			<title>Sheet.95</title>
			<path transform="" d="M9.33 1154.55 L9.42 1154.55 L268.66 1154.55" class="st1"/>
		</g>
		<g id="shape96-170" v:mID="96" v:groupContext="shape" transform="translate(263.853,-717.348)">
			<title>Sheet.96</title>
			<desc>9810</desc>
			<v:textBlock v:margins="rect(4,4,4,4)" v:tabSpace="42.5197"/>
			<v:textRect cx="19.8425" cy="1148.35" width="39.69" height="12.3977"/>
			<rect x="0" y="1142.15" width="39.685" height="12.3977" class="st4"/>
			<text x="5.65" y="1152.55" class="st11" v:langID="2057"><v:paragraph v:horizAlign="1"/><v:tabList/>9810</text>		</g>
		<g id="shape97-173" v:mID="97" v:groupContext="shape" transform="translate(137.003,-783.604)">
			<title>Sheet.97</title>
			<path transform="" d="M9.33 1154.55 L9.42 1154.55 L40.61 1154.55" class="st1"/>
		</g>
		<g id="shape98-180" v:mID="98" v:groupContext="shape" transform="translate(143.545,-789.273)">
			<title>Sheet.98</title>
			<desc>1765</desc>
			<v:textBlock v:margins="rect(4,4,4,4)" v:tabSpace="42.5197"/>
			<v:textRect cx="19.8425" cy="1148.35" width="39.69" height="12.3977"/>
			<rect x="0" y="1142.15" width="39.685" height="12.3977" class="st4"/>
			<text x="5.65" y="1152.55" class="st11" v:langID="2057"><v:paragraph v:horizAlign="1"/><v:tabList/>1765</text>		</g>
		<g id="shape99-183" v:mID="99" v:groupContext="shape" transform="translate(137.003,-758.092)">
			<title>Sheet.99</title>
			<path transform="" d="M9.33 1154.55 L9.42 1154.55 L204.31 1154.55" class="st1"/>
		</g>
		<g id="shape100-190" v:mID="100" v:groupContext="shape" transform="translate(277.318,-760.397)">
			<title>Sheet.100</title>
			<desc>7540</desc>
			<v:textBlock v:margins="rect(4,4,4,4)" v:tabSpace="42.5197"/>
			<v:textRect cx="19.8425" cy="1148.35" width="39.69" height="12.3977"/>
			<rect x="0" y="1142.15" width="39.685" height="12.3977" class="st4"/>
			<text x="5.65" y="1152.55" class="st11" v:langID="2057"><v:paragraph v:horizAlign="1"/><v:tabList/>7540</text>		</g>
		<g id="shape101-193" v:mID="101" v:groupContext="shape" transform="translate(698.262,-803.446)">
			<title>Sheet.101</title>
			<path transform="" d="M9.33 1154.55 L9.42 1154.55 L52.38 1154.55" class="st1"/>
		</g>
		<g id="shape102-200" v:mID="102" v:groupContext="shape" transform="translate(700.388,-751.893)">
			<title>Sheet.102</title>
			<desc>2800</desc>
			<v:textBlock v:margins="rect(4,4,4,4)" v:tabSpace="42.5197"/>
			<v:textRect cx="19.8425" cy="1148.35" width="39.69" height="12.3977"/>
			<rect x="0" y="1142.15" width="39.685" height="12.3977" class="st4"/>
			<text x="5.65" y="1152.55" class="st11" v:langID="2057"><v:paragraph v:horizAlign="1"/><v:tabList/>2800</text>		</g>
		<g id="shape104-203" v:mID="104" v:groupContext="shape" transform="translate(681.255,-744.366)">
			<title>Sheet.104</title>
			<path transform="" d="M9.33 1154.55 L9.42 1154.55 L69.95 1154.55" class="st1"/>
		</g>
		<g id="shape105-210" v:mID="105" v:groupContext="shape" transform="translate(707.617,-808.127)">
			<title>Sheet.105</title>
			<desc>2180</desc>
			<v:textBlock v:margins="rect(4,4,4,4)" v:tabSpace="42.5197"/>
			<v:textRect cx="19.8425" cy="1148.35" width="39.69" height="12.3977"/>
			<rect x="0" y="1142.15" width="39.685" height="12.3977" class="st4"/>
			<text x="5.65" y="1152.55" class="st11" v:langID="2057"><v:paragraph v:horizAlign="1"/><v:tabList/>2180</text>		</g>
		<g id="shape106-213" v:mID="106" v:groupContext="shape" transform="translate(1692.55,764.395) rotate(89.2299)">
			<title>Sheet.106</title>
			<path transform="" d="M9.33 1154.55 L9.42 1154.55 L43.3 1154.55" class="st1"/>
		</g>
		<g id="shape107-220" v:mID="107" v:groupContext="shape" transform="translate(538.814,-343.175)">
			<title>Sheet.107</title>
			<desc>1860</desc>
			<v:textBlock v:margins="rect(4,4,4,4)" v:tabSpace="42.5197"/>
			<v:textRect cx="19.8425" cy="1148.35" width="39.69" height="12.3977"/>
			<rect x="0" y="1142.15" width="39.685" height="12.3977" class="st4"/>
			<text x="5.65" y="1152.55" class="st11" v:langID="2057"><v:paragraph v:horizAlign="1"/><v:tabList/>1860</text>		</g>
		<g id="shape108-223" v:mID="108" v:groupContext="shape" transform="translate(1761.4,723.906) rotate(90)">
			<title>Sheet.108</title>
			<path transform="" d="M9.33 1154.55 L9.42 1154.55 L99.32 1154.55" class="st1"/>
		</g>
		<g id="shape109-230" v:mID="109" v:groupContext="shape" transform="translate(608.128,-363.017)">
			<title>Sheet.109</title>
			<desc>3836</desc>
			<v:textBlock v:margins="rect(4,4,4,4)" v:tabSpace="42.5197"/>
			<v:textRect cx="19.8425" cy="1148.35" width="39.69" height="12.3977"/>
			<rect x="0" y="1142.15" width="39.685" height="12.3977" class="st4"/>
			<text x="5.65" y="1152.55" class="st11" v:langID="2057"><v:paragraph v:horizAlign="1"/><v:tabList/>3836</text>		</g>
		<g id="shape110-233" v:mID="110" v:groupContext="shape" transform="translate(1372.7,148.149) rotate(90)">
			<title>Sheet.110</title>
			<path transform="" d="M9.33 1154.55 L9.42 1154.55 L46.9 1154.55" class="st1"/>
		</g>
		<g id="shape111-240" v:mID="111" v:groupContext="shape" transform="translate(218.853,-974.938)">
			<title>Sheet.111</title>
			<desc>1987</desc>
			<v:textBlock v:margins="rect(4,4,4,4)" v:tabSpace="42.5197"/>
			<v:textRect cx="19.8425" cy="1148.35" width="39.69" height="12.3977"/>
			<rect x="0" y="1142.15" width="39.685" height="12.3977" class="st4"/>
			<text x="5.65" y="1152.55" class="st11" v:langID="2057"><v:paragraph v:horizAlign="1"/><v:tabList/>1987</text>		</g>
		<g id="shape112-243" v:mID="112" v:groupContext="shape" transform="translate(1540.29,148.069) rotate(90)">
			<title>Sheet.112</title>
			<path transform="" d="M9.33 1154.55 L9.42 1154.55 L44.78 1154.55" class="st1"/>
		</g>
		<g id="shape113-250" v:mID="113" v:groupContext="shape" transform="translate(388.577,-974.938)">
			<title>Sheet.113</title>
			<desc>1912</desc>
			<v:textBlock v:margins="rect(4,4,4,4)" v:tabSpace="42.5197"/>
			<v:textRect cx="19.8425" cy="1148.35" width="39.69" height="12.3977"/>
			<rect x="0" y="1142.15" width="39.685" height="12.3977" class="st4"/>
			<text x="5.65" y="1152.55" class="st11" v:langID="2057"><v:paragraph v:horizAlign="1"/><v:tabList/>1912</text>		</g>
		<g id="shape114-253" v:mID="114" v:groupContext="shape" transform="translate(1823.83,148.309) rotate(90)">
			<title>Sheet.114</title>
			<path transform="" d="M9.33 1154.55 L9.42 1154.55 L108.08 1154.55" class="st1"/>
		</g>
		<g id="shape115-260" v:mID="115" v:groupContext="shape" transform="translate(672.042,-939.868)">
			<title>Sheet.115</title>
			<desc>4145</desc>
			<v:textBlock v:margins="rect(4,4,4,4)" v:tabSpace="42.5197"/>
			<v:textRect cx="19.8425" cy="1148.35" width="39.69" height="12.3977"/>
			<rect x="0" y="1142.15" width="39.685" height="12.3977" class="st4"/>
			<text x="5.65" y="1152.55" class="st11" v:langID="2057"><v:paragraph v:horizAlign="1"/><v:tabList/>4145</text>		</g>
		<g id="shape116-263" v:mID="116" v:groupContext="shape" transform="translate(1794.14,148.428) rotate(90)">
			<title>Sheet.116</title>
			<path transform="" d="M9.33 1154.55 L9.42 1154.55 L222.37 1154.55" class="st1"/>
		</g>
		<g id="shape117-270" v:mID="117" v:groupContext="shape" transform="translate(596.924,-869.002)">
			<title>Sheet.117</title>
			<desc>8177</desc>
			<v:textBlock v:margins="rect(4,4,4,4)" v:tabSpace="42.5197"/>
			<v:textRect cx="19.8425" cy="1148.35" width="39.69" height="12.3977"/>
			<rect x="0" y="1142.15" width="39.685" height="12.3977" class="st4"/>
			<text x="5.65" y="1152.55" class="st11" v:langID="2057"><v:paragraph v:horizAlign="1"/><v:tabList/>8177</text>		</g>
		<g id="shape118-273" v:mID="118" v:groupContext="shape" transform="translate(1625.33,399.294) rotate(90)">
			<title>Sheet.118</title>
			<path transform="" d="M9.42 1154.55 L7.59 1154.55 L7.68 1154.55" class="st12"/>
		</g>
		<g id="shape119-282" v:mID="119" v:groupContext="shape" transform="translate(475.034,-740.025)">
			<title>Sheet.119</title>
			<desc>600</desc>
			<v:textBlock v:margins="rect(4,4,4,4)" v:tabSpace="42.5197"/>
			<v:textRect cx="19.8425" cy="1148.35" width="39.69" height="12.3977"/>
			<rect x="0" y="1142.15" width="39.685" height="12.3977" class="st4"/>
			<text x="9.2" y="1152.55" class="st11" v:langID="2057"><v:paragraph v:horizAlign="1"/><v:tabList/>600</text>		</g>
		<g id="shape120-285" v:mID="120" v:groupContext="shape" transform="translate(1711.79,563.061) rotate(90)">
			<title>Sheet.120</title>
			<path transform="" d="M9.33 1154.55 L9.42 1154.55 L16.66 1154.55" class="st1"/>
		</g>
		<g id="shape121-292" v:mID="121" v:groupContext="shape" transform="translate(561.491,-572.072)">
			<title>Sheet.121</title>
			<desc>920</desc>
			<v:textBlock v:margins="rect(4,4,4,4)" v:tabSpace="42.5197"/>
			<v:textRect cx="19.8425" cy="1148.35" width="39.69" height="12.3977"/>
			<rect x="0" y="1142.15" width="39.685" height="12.3977" class="st4"/>
			<text x="9.2" y="1152.55" class="st11" v:langID="2057"><v:paragraph v:horizAlign="1"/><v:tabList/>920</text>		</g>
	</g>
</svg>
